<?xml version="1.0" encoding="UTF-8"?>
<svg id="Layer_2" data-name="Layer 2" xmlns="http://www.w3.org/2000/svg" viewBox="0 0 612.82 415.44">
  <defs>
    <style>
      .cls-1 {
        fill: #fff;
        stroke-width: 0px;
      }
    </style>
  </defs>
  <g id="Layer_1-2" data-name="Layer 1">
    <path class="cls-1" d="M369.92,94.37l32.41,234.47h7.76l-32.41-234.47h-7.76ZM451.47,94.37h-7.07v234.47h7.07V94.37ZM194.11,156.2c-7.77,0-12.36,6.36-12.36,14.12v69.56h24.72v-69.56c0-7.77-4.59-14.12-12.36-14.12ZM555.9,0H56.92C25.48,0,0,25.48,0,56.92v301.61c0,31.44,25.48,56.92,56.92,56.92h498.98c31.44,0,56.92-25.48,56.92-56.92V56.92c0-31.44-25.48-56.92-56.92-56.92ZM150.68,162.2h-26.13v-67.79h-12.71v234.45h8.83v6.36h-45.9v-6.36h8.83V94.41h-12.71v67.79h-26.13v-74.15h105.93v74.15ZM234.01,246.23h-52.26v70.27c0,7.77,4.59,14.12,12.36,14.12s12.36-6.36,12.36-14.12v-37.43h27.54v21.89c0,19.77-16.59,36.02-39.9,36.02s-39.9-16.24-39.9-36.02v-115.11c0-19.77,16.6-36.02,39.9-36.02s39.9,16.24,39.9,36.02v60.38ZM291.91,335.21h-45.2v-6.36h8.83V94.41h-8.83v-6.36h36.37v240.81h8.83v6.36ZM474.4,94.37h-8.79v234.47h8.79v6.38h-45.86v-6.38h8.79v-168.44l-19.83,174.82h-22.58l-23.27-174.82v168.44h8.79v6.38h-26.38v-6.38h8.79V94.37h-8.79v-6.38h37.41l24.31,192.58,21.21-192.58h37.41v6.38ZM571.46,335.21h-47.58v-6.38h8.79l-15.52-90.68-18.62,90.68h8.79v6.38h-25.86v-6.38h8.79l23.1-111.2-21.21-123.27h-8.96v-6.38h47.76v6.38h-8.79l14.14,80.51,16.55-80.51h-8.79v-6.38h25.69v6.38h-8.79l-21.55,100.68,23.27,133.79h8.79v6.38ZM500.26,94.37l40.51,234.47h7.07l-40.51-234.47h-7.07Z"/>
  </g>
</svg>